<svg width="26" height="26" viewBox="0 0 26 26" fill="none" xmlns="http://www.w3.org/2000/svg">
<g id="carbon:chart-average">
<path id="Vector" d="M18.6875 19.5C15.7625 19.5 14.6006 16.107 13.477 12.8261C12.4126 9.71588 11.31 6.5 8.93752 6.5C8.38356 6.53258 7.85183 6.72932 7.41007 7.06516C6.96831 7.401 6.63652 7.86074 6.45696 8.38581L4.91565 7.86825C4.95709 7.74638 5.94834 4.875 8.93752 4.875C12.4719 4.875 13.8223 8.81969 15.015 12.2996C15.9973 15.1669 16.9244 17.875 18.6875 17.875C19.2415 17.8424 19.7732 17.6457 20.215 17.3098C20.6567 16.974 20.9885 16.5143 21.1681 15.9892L22.7086 16.5068C22.668 16.6286 21.6767 19.5 18.6875 19.5Z" fill="#3896FF"/>
<path id="Vector_2" d="M3.25 22.75V13.8125H4.875V12.1875H3.25V1.625H1.625V22.75C1.625 23.181 1.7962 23.5943 2.10095 23.899C2.4057 24.2038 2.81902 24.375 3.25 24.375H24.375V22.75H3.25Z" fill="#3896FF"/>
<path id="Vector_3" d="M6.5 12.1875H8.125V13.8125H6.5V12.1875ZM9.75 12.1875H11.375V13.8125H9.75V12.1875ZM16.25 12.1875H17.875V13.8125H16.25V12.1875ZM19.5 12.1875H21.125V13.8125H19.5V12.1875ZM22.75 12.1875H24.375V13.8125H22.75V12.1875Z" fill="#3896FF"/>
</g>
</svg>
