<svg width="16" height="17" viewBox="0 0 16 17" fill="none" xmlns="http://www.w3.org/2000/svg">
<g id="fluent:chat-multiple-16-filled">
<path id="Vector" d="M5.85999 13.392C6.74852 14.1107 7.85719 14.5019 8.99999 14.5C9.75399 14.5 10.47 14.333 11.113 14.033L13.402 14.49C13.4826 14.5061 13.566 14.502 13.6447 14.4781C13.7234 14.4542 13.795 14.4113 13.8532 14.3532C13.9113 14.295 13.9542 14.2234 13.9781 14.1447C14.002 14.066 14.006 13.9827 13.99 13.902L13.533 11.614C13.833 10.971 14 10.254 14 9.5C14.0016 8.35755 13.6104 7.24927 12.892 6.361C13.0343 7.10134 13.0367 7.86178 12.899 8.603C13.1087 9.51931 12.9901 10.4801 12.564 11.318C12.5126 11.4185 12.4968 11.5334 12.519 11.644L12.863 13.363L11.143 13.019C11.0327 12.997 10.9182 13.0129 10.818 13.064C9.97997 13.4908 9.01859 13.6093 8.10199 13.399C7.36078 13.5368 6.60031 13.5344 5.85999 13.392ZM6.99999 2.5C6.15916 2.49976 5.33184 2.71157 4.59458 3.11584C3.85731 3.52011 3.2339 4.10378 2.78202 4.81286C2.33013 5.52194 2.06437 6.33353 2.0093 7.17255C1.95424 8.01158 2.11165 8.85094 2.46699 9.613L2.00999 11.902C1.99393 11.9827 1.99801 12.066 2.02188 12.1447C2.04575 12.2234 2.08866 12.295 2.14681 12.3532C2.20496 12.4113 2.27656 12.4542 2.35526 12.4781C2.43396 12.502 2.51733 12.5061 2.59799 12.49L4.88599 12.033C5.56431 12.3487 6.30484 12.5082 7.053 12.4997C7.80116 12.4911 8.53786 12.3148 9.2088 11.9837C9.87974 11.6525 10.4678 11.175 10.9297 10.5864C11.3915 9.99774 11.7154 9.31294 11.8774 8.58248C12.0393 7.85202 12.0353 7.09452 11.8656 6.36582C11.6959 5.63711 11.3648 4.95579 10.8967 4.37207C10.4287 3.78836 9.83555 3.31713 9.16114 2.99312C8.48672 2.66912 7.74819 2.50061 6.99999 2.5Z" fill="white"/>
</g>
</svg>
