<svg width="24" height="24" viewBox="0 0 24 24" fill="none" xmlns="http://www.w3.org/2000/svg">
<g id="fluent:person-edit-20-filled">
<path id="Vector" d="M12 2.3999C10.7269 2.3999 9.50604 2.90562 8.60586 3.80579C7.70569 4.70596 7.19998 5.92686 7.19998 7.1999C7.19998 8.47294 7.70569 9.69384 8.60586 10.594C9.50604 11.4942 10.7269 11.9999 12 11.9999C13.273 11.9999 14.4939 11.4942 15.3941 10.594C16.2943 9.69384 16.8 8.47294 16.8 7.1999C16.8 5.92686 16.2943 4.70596 15.3941 3.80579C14.4939 2.90562 13.273 2.3999 12 2.3999ZM6.01078 13.1999C5.69474 13.1986 5.38156 13.2598 5.08921 13.3798C4.79685 13.4998 4.53106 13.6764 4.30709 13.8994C4.08311 14.1223 3.90536 14.3873 3.78402 14.6792C3.66267 14.971 3.60013 15.2839 3.59998 15.5999C3.59998 17.6291 4.59958 19.1591 6.16198 20.1563C7.42198 20.9591 9.03958 21.4151 10.806 21.5543C10.818 21.4319 10.8372 21.3083 10.8684 21.1835L11.3184 19.3859C11.4864 18.7114 11.8348 18.0954 12.3264 17.6039L16.7304 13.1999H6.01198H6.01078ZM13.1748 18.4523L18.9708 12.6563C19.3918 12.2354 19.9628 11.999 20.5582 11.9991C21.1536 11.9992 21.7245 12.2358 22.1454 12.6569C22.5663 13.078 22.8027 13.649 22.8026 14.2443C22.8024 14.8397 22.5658 15.4106 22.1448 15.8315L16.3488 21.6263C16.0111 21.9641 15.5881 22.2038 15.1248 22.3199L13.3272 22.7687C13.1484 22.8132 12.9612 22.8108 12.7837 22.7616C12.6062 22.7124 12.4444 22.6181 12.3141 22.4879C12.1838 22.3577 12.0893 22.1961 12.04 22.0186C11.9906 21.8411 11.988 21.6539 12.0324 21.4751L12.4824 19.6775C12.5975 19.2138 12.8373 18.7905 13.176 18.4535L13.1748 18.4523Z" fill="#95C900"/>
</g>
</svg>
