<svg width="30" height="30" viewBox="0 0 30 30" fill="none" xmlns="http://www.w3.org/2000/svg">
<g id="fluent:wallet-credit-card-20-regular">
<path id="Vector" d="M14.1976 2.50733C14.3877 2.23046 14.6319 1.99636 14.9149 1.81963C15.1979 1.64291 15.5138 1.52735 15.8427 1.48017C16.1717 1.43299 16.5067 1.4552 16.8268 1.54541C17.1469 1.63563 17.4453 1.79192 17.7034 2.00452L22.974 6.35296C23.4449 6.74128 23.7551 7.29528 23.8428 7.90506C23.9306 8.51485 23.7896 9.13588 23.4479 9.645H21.4815L22.1101 8.72945C22.2271 8.55986 22.2765 8.35152 22.2484 8.14639C22.2203 7.94126 22.1167 7.75456 21.9586 7.62391L19.2443 5.38664L16.3494 9.645H14.3878L17.9886 4.35153L16.6863 3.27711C16.6003 3.20622 16.5009 3.15409 16.3942 3.12397C16.2875 3.09386 16.1759 3.0864 16.0662 3.10208C15.9566 3.11776 15.8513 3.15622 15.7569 3.21508C15.6625 3.27394 15.5811 3.35192 15.5177 3.44417L11.2609 9.64336H9.29448L14.1976 2.50733ZM19.8358 19.472C19.622 19.472 19.4171 19.5583 19.2659 19.7118C19.1148 19.8654 19.0299 20.0737 19.0299 20.2909C19.0299 20.5081 19.1148 20.7164 19.2659 20.87C19.4171 21.0235 19.622 21.1098 19.8358 21.1098H21.4476C21.6614 21.1098 21.8663 21.0235 22.0175 20.87C22.1686 20.7164 22.2535 20.5081 22.2535 20.2909C22.2535 20.0737 22.1686 19.8654 22.0175 19.7118C21.8663 19.5583 21.6614 19.472 21.4476 19.472H19.8358ZM5.32941 8.00717H8.82544L7.69717 9.645H5.32941C5.11566 9.645 4.91068 9.73128 4.75954 9.88485C4.6084 10.0384 4.5235 10.2467 4.5235 10.4639C4.5235 10.6811 4.6084 10.8894 4.75954 11.043C4.91068 11.1966 5.11566 11.2828 5.32941 11.2828H22.2535C23.1085 11.2828 23.9284 11.6279 24.533 12.2422C25.1375 12.8566 25.4772 13.6897 25.4772 14.5585V24.3855C25.4772 25.2542 25.1375 26.0874 24.533 26.7017C23.9284 27.316 23.1085 27.6611 22.2535 27.6611H6.94123C5.87252 27.6611 4.84759 27.2297 4.0919 26.4619C3.33622 25.694 2.91167 24.6525 2.91167 23.5666V10.4639C2.91167 9.81234 3.1664 9.18746 3.61981 8.72673C4.07322 8.266 4.68818 8.00717 5.32941 8.00717ZM4.5235 23.5666C4.5235 24.2181 4.77822 24.843 5.23163 25.3037C5.68504 25.7645 6.3 26.0233 6.94123 26.0233H22.2535C22.681 26.0233 23.091 25.8507 23.3932 25.5436C23.6955 25.2364 23.8653 24.8199 23.8653 24.3855V14.5585C23.8653 14.1241 23.6955 13.7075 23.3932 13.4004C23.091 13.0932 22.681 12.9207 22.2535 12.9207H5.32941C5.04734 12.9207 4.77494 12.8715 4.5235 12.7814V23.5666Z" fill="#313945"/>
</g>
</svg>
