<svg width="27" height="27" viewBox="0 0 27 27" fill="none" xmlns="http://www.w3.org/2000/svg">
<g id="fluent:folder-people-24-regular">
<path id="Vector" d="M9.16823 4.41113C9.67554 4.41113 10.1696 4.56663 10.5843 4.85448L10.7563 4.98682L13.3756 7.16824H21.8984C22.497 7.16805 23.0755 7.38427 23.5273 7.77706C23.979 8.16984 24.2736 8.7127 24.3566 9.30555L24.3742 9.4798L24.3798 9.64964V14.6676C23.8698 14.4065 23.296 14.2959 22.7255 14.3489V9.64964C22.7255 9.44977 22.6531 9.25665 22.5217 9.10602C22.3903 8.95538 22.2089 8.85741 22.0108 8.83023L21.8984 8.82251H13.3745L10.7563 11.005C10.3673 11.3288 9.88858 11.5258 9.38439 11.5697L9.16823 11.5796L3.97714 11.5785V19.5752C3.97714 19.9943 4.28814 20.3406 4.69178 20.3947L4.80428 20.4024H12.6146C12.3527 20.9132 12.2273 21.4831 12.2507 22.0566H4.80428C4.17551 22.0567 3.57017 21.8181 3.11058 21.389C2.65099 20.9599 2.37143 20.3724 2.32839 19.7451L2.32288 19.5752V6.89253C2.3228 6.26377 2.56142 5.65843 2.9905 5.19884C3.41959 4.73924 4.00715 4.45968 4.63444 4.41665L4.80428 4.41113H9.16823ZM9.16823 6.0654H4.80428C4.6044 6.06541 4.41129 6.13779 4.26065 6.26917C4.11001 6.40054 4.01205 6.58202 3.98486 6.78004L3.97714 6.89253V9.92425L9.16823 9.92535C9.32221 9.92517 9.47308 9.88201 9.60385 9.80073L9.6976 9.73456L11.7831 7.99427L9.6987 6.25729C9.58004 6.15826 9.436 6.09446 9.28293 6.07312L9.16823 6.0654ZM17.487 18.7481C18.1451 18.7481 18.7762 18.4867 19.2416 18.0213C19.7069 17.556 19.9684 16.9248 19.9684 16.2667C19.9684 15.6086 19.7069 14.9774 19.2416 14.5121C18.7762 14.0467 18.1451 13.7853 17.487 13.7853C16.8289 13.7853 16.1977 14.0467 15.7324 14.5121C15.267 14.9774 15.0056 15.6086 15.0056 16.2667C15.0056 16.9248 15.267 17.556 15.7324 18.0213C16.1977 18.4867 16.8289 18.7481 17.487 18.7481ZM17.487 25.3652C20.4415 25.3652 21.6226 23.6348 21.6226 21.9188C21.6226 20.7773 20.8286 19.8509 19.8504 19.8509H15.1236C14.1454 19.8509 13.3513 20.7773 13.3513 21.9188C13.3513 23.6414 14.5325 25.3652 17.487 25.3652ZM24.9312 17.3695C24.9312 17.8814 24.7278 18.3723 24.3659 18.7342C24.004 19.0962 23.5131 19.2995 23.0012 19.2995C22.4893 19.2995 21.9984 19.0962 21.6365 18.7342C21.2746 18.3723 21.0712 17.8814 21.0712 17.3695C21.0712 16.8577 21.2746 16.3668 21.6365 16.0048C21.9984 15.6429 22.4893 15.4396 23.0012 15.4396C23.5131 15.4396 24.004 15.6429 24.3659 16.0048C24.7278 16.3668 24.9312 16.8577 24.9312 17.3695ZM22.0814 24.2623C22.527 23.5344 22.7233 22.7128 22.7233 21.9188C22.7223 21.3931 22.6016 20.8745 22.3704 20.4024H24.0688C24.8518 20.4024 25.487 21.0508 25.487 21.8504C25.487 23.0525 24.5419 24.2623 22.1785 24.2623H22.0814Z" fill="#313945"/>
</g>
</svg>
