<svg width="16" height="15" viewBox="0 0 16 15" fill="none" xmlns="http://www.w3.org/2000/svg">
<g id="ant-design:info-circle-filled" opacity="0.7">
<path id="Vector" d="M7.82989 0.9375C4.09718 0.9375 1.07059 3.87598 1.07059 7.5C1.07059 11.124 4.09718 14.0625 7.82989 14.0625C11.5626 14.0625 14.5892 11.124 14.5892 7.5C14.5892 3.87598 11.5626 0.9375 7.82989 0.9375ZM8.31269 10.6641C8.31269 10.7285 8.25838 10.7812 8.19199 10.7812H7.46778C7.4014 10.7812 7.34708 10.7285 7.34708 10.6641V6.67969C7.34708 6.61523 7.4014 6.5625 7.46778 6.5625H8.19199C8.25838 6.5625 8.31269 6.61523 8.31269 6.67969V10.6641ZM7.82989 5.625C7.64037 5.62124 7.45993 5.54551 7.32727 5.41406C7.19461 5.28261 7.12031 5.10591 7.12031 4.92188C7.12031 4.73784 7.19461 4.56114 7.32727 4.42969C7.45993 4.29824 7.64037 4.22251 7.82989 4.21875C8.0194 4.22251 8.19985 4.29824 8.3325 4.42969C8.46516 4.56114 8.53946 4.73784 8.53946 4.92188C8.53946 5.10591 8.46516 5.28261 8.3325 5.41406C8.19985 5.54551 8.0194 5.62124 7.82989 5.625Z" fill="#3C39B2"/>
</g>
</svg>
