<svg width="28" height="28" viewBox="0 0 28 28" fill="none" xmlns="http://www.w3.org/2000/svg">
<g id="healthicons:money-bag">
<path id="Vector" d="M13.375 4.48041C13.176 4.4797 12.9764 4.4799 12.7762 4.48076C11.8129 4.48524 10.8342 4.51054 9.8471 4.54717L10.1327 5.7996C11.1606 5.68338 12.2876 5.59684 13.4144 5.55357C14.0249 5.53013 14.6317 5.51775 15.2202 5.52087C16.9859 5.53008 18.588 5.67835 19.6361 6.08447L20.0843 6.25825L19.8842 6.69521C18.4221 9.8893 18.084 12.9708 18.3131 15.9943C18.4262 12.4061 19.9177 9.21466 21.8757 5.12335C19.2114 4.6806 16.3597 4.49032 13.375 4.48036V4.48041ZM14.7854 6.43203C14.3457 6.43238 13.8974 6.44129 13.4492 6.45849C11.3525 6.53899 9.26322 6.78502 7.90151 7.06707C9.42261 9.88855 10.6531 12.7165 11.4477 15.4734C11.5465 15.4701 11.6455 15.4708 11.7442 15.4757C11.9464 15.4856 12.1463 15.513 12.3417 15.5556C11.5329 12.9697 10.6117 10.5848 9.46653 8.20343L9.20778 7.66539L9.79573 7.56134C11.2727 7.29982 12.7972 7.19859 14.2481 7.19814C14.3448 7.19814 14.4413 7.19849 14.5373 7.19935C15.4592 7.2074 16.3477 7.25509 17.1709 7.32689L17.7271 7.37544L17.5649 7.90961C16.624 11.007 16.4397 14.3334 16.9717 17.4983C16.9806 17.5065 16.9895 17.5146 16.9982 17.5229C17.19 17.4557 17.3695 17.3872 17.5368 17.3139C17.1215 13.9232 17.3055 10.425 18.8564 6.78849C17.9909 6.56797 16.6716 6.45271 15.2219 6.4346C15.0764 6.4328 14.9309 6.43196 14.7854 6.43208V6.43203ZM22.078 6.80359C20.5205 10.1019 19.4143 12.745 19.2329 15.5984C20.2411 12.2374 22.1898 9.22452 24.4103 7.28885C23.6395 7.09659 22.8615 6.93471 22.078 6.80359ZM7.23774 7.73583C6.29388 7.93044 5.37185 8.17747 4.48001 8.51879C4.91401 8.89513 5.69858 9.59523 6.65049 10.5257C7.08861 10.0748 7.53544 9.62924 8.00148 9.22412C7.75464 8.72409 7.50003 8.22793 7.23774 7.73583ZM14.3833 8.11227C13.698 8.10894 12.9966 8.12857 12.2926 8.17732C12.2187 8.8657 11.8116 9.5097 11.3253 10.143C12.1017 11.9779 12.7722 13.8502 13.3759 15.8381C14.3004 16.1108 15.215 16.4331 15.9559 16.8194C15.6807 14.6832 15.7183 12.4944 16.0756 10.3538C15.4274 9.68418 15.0897 8.94056 15.0626 8.12298C14.8362 8.11695 14.6097 8.11338 14.3833 8.11227ZM23.541 9.46995C22.2968 10.9441 21.2005 12.7904 20.4534 14.7986C21.8251 12.8474 23.5119 11.3255 25.3074 10.2504C24.7224 9.98169 24.1336 9.72152 23.541 9.46995ZM8.41007 10.0716C7.67581 10.7352 6.9503 11.5316 6.19476 12.2903C7.8193 13.2558 9.203 14.3993 10.3318 15.6944C10.4018 15.6679 10.4726 15.6441 10.5438 15.6225C10.0156 13.8064 9.2918 11.948 8.41007 10.0716ZM20.1524 16.3482C19.3274 17.3438 18.5507 17.8694 17.4813 18.2888C17.6016 18.7527 17.4229 19.2852 17.0116 19.6925C16.7697 19.9321 16.4658 20.2051 16.0213 20.3826C16.0854 20.4206 16.1509 20.4562 16.2175 20.4896C16.8396 20.8 17.9386 20.6999 18.9595 20.2356C19.9774 19.7727 20.8866 18.9731 21.2236 18.1631C21.3925 17.7078 21.2719 17.4703 20.9762 17.1221C20.7657 16.8743 20.4583 16.6245 20.1524 16.3483V16.3482ZM11.5953 16.3777C11.0562 16.3728 10.5087 16.5283 10.0562 16.8688C9.4127 17.3529 8.91662 18.2163 8.91219 19.6829V19.693L8.91169 19.7031C8.76477 22.7913 8.99219 24.2161 9.44273 24.9891C9.8404 25.6715 10.5018 25.9981 11.4693 26.5988C11.5154 26.4778 11.5634 26.3289 11.6084 26.1411C11.723 25.6632 11.8178 25.0068 11.8779 24.2808C11.9981 22.8289 11.9805 21.0854 11.7795 19.8309L11.6733 19.1673L12.3282 19.318C13.9188 19.6839 14.8287 19.7271 15.357 19.6339C15.8854 19.5406 16.0644 19.3561 16.3743 19.0491C16.6656 18.7607 16.6602 18.6569 16.5985 18.4946C16.5368 18.3322 16.2892 18.0647 15.869 17.8087C15.0286 17.2967 13.6007 16.822 12.2659 16.468C12.047 16.4101 11.8217 16.3797 11.5953 16.3777ZM21.1093 19.8702C20.6056 20.3609 19.9856 20.7638 19.3345 21.0599C18.2788 21.54 17.1176 21.7596 16.1542 21.4399C15.8141 21.5665 15.6165 21.712 15.5168 21.8324C15.3801 21.9976 15.3715 22.1192 15.4178 22.2932C15.4641 22.4673 15.6022 22.674 15.773 22.8227C15.9437 22.9715 16.1466 23.0487 16.2238 23.0524C18.5781 23.1642 19.597 22.4885 20.8664 21.7048C21.2366 21.4763 21.3783 21.0134 21.3428 20.5511C21.3251 20.32 21.2578 20.1028 21.1802 19.966C21.1609 19.9311 21.1371 19.8989 21.1093 19.8702ZM12.7481 20.3278C12.8853 21.5891 12.8875 23.0605 12.7804 24.3555C12.7176 25.1138 12.6206 25.8034 12.4891 26.3522C12.4319 26.5909 12.369 26.8027 12.2929 26.9891L19.6736 26.6638C19.5903 26.3544 19.5053 26.0437 19.4205 25.7329C19.1369 25.8273 18.847 25.9017 18.5531 25.9555L18.5553 25.9922L18.1369 26.0183C17.8792 26.0492 17.611 26.0662 17.3327 26.0682L13.1135 26.3303L13.239 25.7463C13.6388 23.8845 13.6757 22.2451 13.429 20.4518C13.2013 20.4149 12.9742 20.3736 12.748 20.3278H12.7481ZM14.3567 20.5635C14.5553 22.1701 14.5314 23.7035 14.2356 25.3533L15.2048 25.2931C15.0528 25.0688 14.9484 24.8158 14.8979 24.5496C14.8327 24.2034 14.869 23.8181 15.0954 23.4995C15.1055 23.4854 15.1163 23.4719 15.127 23.4582C14.863 23.2145 14.6426 22.9017 14.5427 22.5262C14.4363 22.1266 14.5027 21.6372 14.8192 21.2548C14.9238 21.1286 15.0503 21.0146 15.1987 20.9119C15.0674 20.8073 14.9523 20.6963 14.8529 20.5808C14.6987 20.5818 14.5337 20.5761 14.3567 20.5635ZM21.0314 22.6658C19.8513 23.3829 18.5253 24.0683 16.1808 23.957C16.1043 23.9533 16.0282 23.9429 15.9535 23.9261C15.8914 23.9539 15.8583 23.9893 15.8336 24.024C15.7852 24.0922 15.7566 24.2152 15.7879 24.3819C15.8507 24.7153 16.1665 25.0807 16.4606 25.1149C18.5428 25.3571 19.9814 24.6759 20.8549 23.8834C21.2574 23.5183 21.2608 23.2847 21.2016 23.0306C21.1719 22.9036 21.1065 22.7806 21.0314 22.6658ZM20.6952 25.1342C20.5554 25.2219 20.4119 25.3034 20.2652 25.3788C20.3482 25.6832 20.4314 25.9876 20.5135 26.2921L21.5158 26.1124C21.2572 25.8917 21.0548 25.6619 20.8924 25.4334C20.8198 25.3313 20.7559 25.2321 20.6952 25.1342Z" fill="#00852B"/>
</g>
</svg>
