<svg width="25" height="25" viewBox="0 0 25 25" fill="none" xmlns="http://www.w3.org/2000/svg">
<g id="healthicons:money-bag">
<path id="Vector" fill-rule="evenodd" clip-rule="evenodd" d="M12.5208 3.125C10.1682 3.125 8.02446 3.90208 6.75623 4.53698C6.64165 4.59427 6.53488 4.65052 6.4354 4.70469C6.23853 4.81198 6.07082 4.91198 5.93748 5L7.38019 7.12396L8.05936 7.39427C10.7135 8.73333 14.2729 8.73333 16.9276 7.39427L17.6984 6.99427L19.063 5C18.7803 4.81562 18.4863 4.64915 18.1828 4.50156C16.9213 3.87344 14.8292 3.125 12.5208 3.125ZM9.16509 5.52917C8.65421 5.43357 8.14963 5.30694 7.65415 5.15C8.84217 4.6224 10.613 4.0625 12.5203 4.0625C13.8417 4.0625 15.0911 4.33125 16.1245 4.67188C14.9135 4.84219 13.6213 5.13125 12.3901 5.48698C11.4213 5.76719 10.289 5.73698 9.16509 5.52917ZM17.4776 8.16667L17.35 8.23125C14.4297 9.70417 10.5568 9.70417 7.63644 8.23125L7.51561 8.16979C3.12915 12.9828 -0.219806 21.8734 12.5208 21.8734C25.2604 21.8734 21.8297 12.8167 17.4776 8.16667ZM11.9792 12.5C11.7029 12.5 11.4379 12.6097 11.2426 12.8051C11.0472 13.0004 10.9375 13.2654 10.9375 13.5417C10.9375 13.8179 11.0472 14.0829 11.2426 14.2782C11.4379 14.4736 11.7029 14.5833 11.9792 14.5833V12.5ZM13.0208 11.4583V10.9375H11.9792V11.4583C11.4266 11.4583 10.8967 11.6778 10.506 12.0685C10.1153 12.4592 9.89582 12.9891 9.89582 13.5417C9.89582 14.0942 10.1153 14.6241 10.506 15.0148C10.8967 15.4055 11.4266 15.625 11.9792 15.625V17.7083C11.7637 17.7084 11.5536 17.6416 11.3777 17.5173C11.2017 17.393 11.0687 17.2172 10.9969 17.0141C10.9509 16.8838 10.855 16.7772 10.7304 16.7176C10.6057 16.658 10.4625 16.6504 10.3323 16.6964C10.202 16.7424 10.0954 16.8382 10.0358 16.9628C9.9762 17.0875 9.96857 17.2307 10.0146 17.3609C10.1582 17.7672 10.4243 18.1189 10.7761 18.3676C11.128 18.6164 11.5483 18.75 11.9792 18.75V19.2708H13.0208V18.75C13.5734 18.75 14.1033 18.5305 14.494 18.1398C14.8847 17.7491 15.1042 17.2192 15.1042 16.6667C15.1042 16.1141 14.8847 15.5842 14.494 15.1935C14.1033 14.8028 13.5734 14.5833 13.0208 14.5833V12.5C13.4739 12.5 13.8599 12.7891 14.0036 13.1943C14.025 13.2606 14.0594 13.3219 14.1048 13.3747C14.1503 13.4274 14.2058 13.4706 14.2682 13.5015C14.3306 13.5324 14.3986 13.5505 14.4681 13.5547C14.5376 13.5588 14.6073 13.549 14.6729 13.5258C14.7386 13.5026 14.799 13.4665 14.8504 13.4196C14.9019 13.3727 14.9434 13.3159 14.9725 13.2526C15.0016 13.1894 15.0178 13.1209 15.02 13.0513C15.0222 12.9817 15.0105 12.9124 14.9854 12.8474C14.8417 12.4412 14.5757 12.0894 14.2238 11.8407C13.872 11.5919 13.4517 11.4583 13.0208 11.4583ZM13.0208 15.625V17.7083C13.2971 17.7083 13.562 17.5986 13.7574 17.4032C13.9527 17.2079 14.0625 16.9429 14.0625 16.6667C14.0625 16.3904 13.9527 16.1254 13.7574 15.9301C13.562 15.7347 13.2971 15.625 13.0208 15.625Z" fill="#5531FB"/>
</g>
</svg>
