<svg width="24" height="24" viewBox="0 0 24 24" fill="none" xmlns="http://www.w3.org/2000/svg">
<g id="ic:sharp-person-add-alt">
<path id="Vector" d="M15.39 14.56C13.71 13.7 11.53 13 9 13C6.47 13 4.29 13.7 2.61 14.56C2.12206 14.8113 1.71331 15.1929 1.4291 15.6625C1.1449 16.132 0.996374 16.6712 1 17.22V20H17V17.22C17 16.1 16.39 15.07 15.39 14.56ZM9 12C11.21 12 13 10.21 13 8C13 5.79 11.21 4 9 4C6.79 4 5 5.79 5 8C5 10.21 6.79 12 9 12ZM20 9V6H18V9H15V11H18V14H20V11H23V9H20Z" fill="white"/>
</g>
</svg>
