<svg width="28" height="28" viewBox="0 0 28 28" fill="none" xmlns="http://www.w3.org/2000/svg">
<g id="ic:baseline-manage-accounts">
<path id="Vector" d="M11.75 14C14.2353 14 16.25 11.9853 16.25 9.5C16.25 7.01472 14.2353 5 11.75 5C9.26472 5 7.25 7.01472 7.25 9.5C7.25 11.9853 9.26472 14 11.75 14Z" fill="#313945"/>
<path id="Vector_2" d="M12.5037 15.1475C12.2563 15.1363 12.0087 15.125 11.75 15.125C9.0275 15.125 6.485 15.8788 4.31375 17.1725C3.32375 17.7575 2.75 18.86 2.75 20.0188V23H13.1675C12.3729 21.8665 11.8929 20.5427 11.7763 19.1633C11.6597 17.7839 11.9107 16.3983 12.5037 15.1475ZM23.8438 18.5C23.8438 18.2525 23.81 18.0275 23.7763 17.7913L25.0588 16.655L23.9338 14.7088L22.3025 15.26C21.9425 14.9563 21.5375 14.72 21.0875 14.5512L20.75 12.875H18.5L18.1625 14.5512C17.7125 14.72 17.3075 14.9563 16.9475 15.26L15.3162 14.7088L14.1912 16.655L15.4738 17.7913C15.44 18.0275 15.4062 18.2525 15.4062 18.5C15.4062 18.7475 15.44 18.9725 15.4738 19.2087L14.1912 20.345L15.3162 22.2913L16.9475 21.74C17.3075 22.0437 17.7125 22.28 18.1625 22.4488L18.5 24.125H20.75L21.0875 22.4488C21.5375 22.28 21.9425 22.0437 22.3025 21.74L23.9338 22.2913L25.0588 20.345L23.7763 19.2087C23.81 18.9725 23.8438 18.7475 23.8438 18.5ZM19.625 20.75C18.3875 20.75 17.375 19.7375 17.375 18.5C17.375 17.2625 18.3875 16.25 19.625 16.25C20.8625 16.25 21.875 17.2625 21.875 18.5C21.875 19.7375 20.8625 20.75 19.625 20.75Z" fill="#313945"/>
</g>
</svg>
