<svg width="25" height="25" viewBox="0 0 25 25" fill="none" xmlns="http://www.w3.org/2000/svg">
<g id="bx:refresh">
<path id="Vector" d="M10.5 11.5002H7.601L7.602 11.4912C7.73257 10.8519 7.98813 10.2446 8.354 9.70423C8.89845 8.90205 9.66215 8.27339 10.554 7.89323C10.856 7.76523 11.171 7.66723 11.492 7.60223C12.1579 7.46723 12.8441 7.46723 13.51 7.60223C14.467 7.79832 15.3451 8.27164 16.035 8.96323L17.451 7.55123C16.8128 6.91287 16.0578 6.40327 15.227 6.05023C14.8033 5.87086 14.3628 5.73418 13.912 5.64223C12.9818 5.45324 12.0232 5.45324 11.093 5.64223C10.6419 5.73456 10.201 5.87157 9.777 6.05123C8.52753 6.58133 7.45793 7.46132 6.697 8.58523C6.18489 9.34308 5.82676 10.1942 5.643 11.0902C5.615 11.2252 5.6 11.3632 5.58 11.5002H2.5L6.5 15.5002L10.5 11.5002ZM14.5 13.5002H17.399L17.398 13.5082C17.1367 14.79 16.3812 15.9173 15.295 16.6462C14.7548 17.0124 14.1475 17.268 13.508 17.3982C12.8424 17.5332 12.1566 17.5332 11.491 17.3982C10.8516 17.2677 10.2443 17.0121 9.704 16.6462C9.43862 16.4667 9.19085 16.2625 8.964 16.0362L7.55 17.4502C8.18851 18.0884 8.94392 18.5977 9.775 18.9502C10.199 19.1302 10.642 19.2672 11.09 19.3582C12.0198 19.5473 12.9782 19.5473 13.908 19.3582C15.7005 18.9862 17.2773 17.9296 18.303 16.4132C18.8146 15.656 19.1724 14.8055 19.356 13.9102C19.383 13.7752 19.399 13.6372 19.419 13.5002H22.5L18.5 9.50023L14.5 13.5002Z" fill="white"/>
</g>
</svg>
