<svg width="24" height="24" viewBox="0 0 24 24" fill="none" xmlns="http://www.w3.org/2000/svg">
<g id="bx:tachometer">
<path id="Vector" d="M12 4C6.486 4 2 8.486 2 14C1.99871 15.5434 2.35864 17.0656 3.051 18.445C3.221 18.785 3.567 19 3.946 19H20.053C20.432 19 20.779 18.785 20.949 18.445C21.6414 17.0656 22.0013 15.5434 22 14C22 8.486 17.514 4 12 4ZM19.41 17H4.59C4.19924 16.0481 3.99879 15.0289 4 14C4 9.589 7.589 6 12 6C16.411 6 20 9.589 20 14C20.0012 15.0289 19.8008 16.0481 19.41 17Z" fill="#313945"/>
<path id="Vector_2" d="M11.2802 15.2267C11.4303 15.4319 11.6291 15.5964 11.8587 15.7054C12.0883 15.8145 12.3414 15.8646 12.5952 15.8513C12.8491 15.838 13.0956 15.7617 13.3125 15.6293C13.5294 15.4968 13.7099 15.3124 13.8377 15.0927C13.9394 14.919 14.0058 14.727 14.0331 14.5277C14.0605 14.3283 14.0482 14.1256 13.9971 13.931C13.946 13.7364 13.857 13.5537 13.7352 13.3936C13.6134 13.2334 13.4612 13.0989 13.2873 12.9976L7.05025 9.35704C7.04481 9.35415 7.03868 9.35279 7.03252 9.35311C7.02636 9.35343 7.02041 9.35542 7.0153 9.35887C7.00834 9.36395 7.00365 9.37155 7.00223 9.38005C7.0008 9.38854 7.00275 9.39726 7.00767 9.40433L11.2802 15.2267Z" fill="#313945"/>
</g>
</svg>
