<svg width="16" height="17" viewBox="0 0 16 17" fill="none" xmlns="http://www.w3.org/2000/svg">
<g id="fluent:ticket-diagonal-16-filled">
<path id="Vector" d="M9.97599 1.85192C9.71005 1.60812 9.36025 1.47639 8.99955 1.48422C8.63886 1.49204 8.2951 1.63881 8.03999 1.89392L1.42399 8.51092C1.29397 8.64092 1.19083 8.79527 1.12047 8.96513C1.0501 9.135 1.01389 9.31706 1.01389 9.50092C1.01389 9.68478 1.0501 9.86684 1.12047 10.0367C1.19083 10.2066 1.29397 10.3609 1.42399 10.4909L2.34999 11.4159C2.69699 11.7639 3.19599 11.6799 3.48999 11.4839C3.70155 11.3433 3.95526 11.2802 4.20804 11.3055C4.46081 11.3307 4.69707 11.4426 4.8767 11.6222C5.05633 11.8018 5.16825 12.0381 5.19346 12.2909C5.21866 12.5436 5.1556 12.7974 5.01499 13.0089C4.81999 13.3029 4.73599 13.8029 5.08299 14.1499L5.98799 15.0539C6.12049 15.1866 6.27829 15.2912 6.45202 15.3617C6.62575 15.4322 6.81187 15.4671 6.99934 15.4643C7.1868 15.4615 7.3718 15.4211 7.54335 15.3454C7.71489 15.2698 7.8695 15.1605 7.99799 15.0239L14.596 8.01192C14.723 7.87695 14.822 7.71811 14.8871 7.5446C14.9523 7.37109 14.9823 7.18638 14.9755 7.00117C14.9687 6.81596 14.9252 6.63394 14.8475 6.46567C14.7699 6.2974 14.6595 6.14622 14.523 6.02092L13.637 5.20792C13.5394 5.1209 13.4229 5.05779 13.2967 5.0236C13.1706 4.9894 13.0381 4.98506 12.91 5.01092C12.683 5.05092 12.468 5.17092 12.312 5.34092C12.2143 5.44742 12.0967 5.53365 11.9657 5.59468C11.8348 5.65571 11.6931 5.69035 11.5487 5.69662C11.4044 5.70289 11.2602 5.68066 11.1244 5.63121C10.9887 5.58176 10.864 5.50606 10.7575 5.40842C10.5424 5.21123 10.4144 4.93668 10.4018 4.64515C10.3955 4.5008 10.4177 4.35663 10.4672 4.22087C10.5166 4.08511 10.5923 3.96042 10.69 3.85392C10.847 3.68592 10.948 3.46092 10.969 3.23092C10.9834 3.10113 10.9675 2.96977 10.9223 2.84723C10.8772 2.72468 10.8042 2.61433 10.709 2.52492L9.97599 1.85192Z" fill="white"/>
</g>
</svg>
