<svg width="22" height="22" viewBox="0 0 22 22" fill="none" xmlns="http://www.w3.org/2000/svg">
<g id="fluent:wallet-32-filled">
<path id="Vector" d="M2.0625 4.125C2.0625 3.57799 2.2798 3.05339 2.66659 2.66659C3.05339 2.2798 3.57799 2.0625 4.125 2.0625H15.6406C16.2332 2.0625 16.8015 2.29791 17.2206 2.71693C17.6396 3.13596 17.875 3.70428 17.875 4.29688V4.9885C19.0768 5.41337 19.9375 6.55944 19.9375 7.90625V16.8438C19.9375 17.6643 19.6116 18.4512 19.0314 19.0314C18.4512 19.6116 17.6643 19.9375 16.8438 19.9375H5.15625C4.33574 19.9375 3.54883 19.6116 2.96864 19.0314C2.38845 18.4512 2.0625 17.6643 2.0625 16.8438V4.29688H2.06938C2.06473 4.2397 2.06243 4.18236 2.0625 4.125ZM16.5 4.29688C16.5 3.8225 16.115 3.4375 15.6406 3.4375H4.125C3.94267 3.4375 3.7678 3.50993 3.63887 3.63886C3.50993 3.7678 3.4375 3.94266 3.4375 4.125C3.4375 4.30734 3.50993 4.4822 3.63887 4.61114C3.7678 4.74007 3.94267 4.8125 4.125 4.8125H16.5V4.29688ZM14.4375 12.375C14.2552 12.375 14.0803 12.4474 13.9514 12.5764C13.8224 12.7053 13.75 12.8802 13.75 13.0625C13.75 13.2448 13.8224 13.4197 13.9514 13.5486C14.0803 13.6776 14.2552 13.75 14.4375 13.75H16.5C16.6823 13.75 16.8572 13.6776 16.9861 13.5486C17.1151 13.4197 17.1875 13.2448 17.1875 13.0625C17.1875 12.8802 17.1151 12.7053 16.9861 12.5764C16.8572 12.4474 16.6823 12.375 16.5 12.375H14.4375Z" fill="#FC6B21"/>
</g>
</svg>
