<svg width="25" height="25" viewBox="0 0 25 25" fill="none" xmlns="http://www.w3.org/2000/svg">
<g id="ep:warning-filled">
<path id="Vector" d="M12.5 1.5625C15.4008 1.5625 18.1828 2.71484 20.234 4.76602C22.2852 6.8172 23.4375 9.59919 23.4375 12.5C23.4375 15.4008 22.2852 18.1828 20.234 20.234C18.1828 22.2852 15.4008 23.4375 12.5 23.4375C9.59919 23.4375 6.8172 22.2852 4.76602 20.234C2.71484 18.1828 1.5625 15.4008 1.5625 12.5C1.5625 9.59919 2.71484 6.8172 4.76602 4.76602C6.8172 2.71484 9.59919 1.5625 12.5 1.5625ZM12.5 6.25C12.3016 6.24983 12.1054 6.29104 11.9238 6.37099C11.7423 6.45094 11.5794 6.56787 11.4456 6.71432C11.3118 6.86078 11.21 7.03353 11.1467 7.22154C11.0835 7.40955 11.0601 7.6087 11.0781 7.80625L11.6484 14.0656C11.6705 14.2761 11.7698 14.4709 11.927 14.6125C12.0843 14.7541 12.2884 14.8324 12.5 14.8324C12.7116 14.8324 12.9157 14.7541 13.073 14.6125C13.2302 14.4709 13.3295 14.2761 13.3516 14.0656L13.9203 7.80625C13.9383 7.60883 13.915 7.40982 13.8518 7.22191C13.7886 7.034 13.687 6.86133 13.5534 6.7149C13.4197 6.56847 13.257 6.4515 13.0757 6.37146C12.8943 6.29141 12.6982 6.25005 12.5 6.25ZM12.5 18.75C12.8315 18.75 13.1495 18.6183 13.3839 18.3839C13.6183 18.1495 13.75 17.8315 13.75 17.5C13.75 17.1685 13.6183 16.8505 13.3839 16.6161C13.1495 16.3817 12.8315 16.25 12.5 16.25C12.1685 16.25 11.8505 16.3817 11.6161 16.6161C11.3817 16.8505 11.25 17.1685 11.25 17.5C11.25 17.8315 11.3817 18.1495 11.6161 18.3839C11.8505 18.6183 12.1685 18.75 12.5 18.75Z" fill="black"/>
</g>
</svg>
